<svg xmlns="http://www.w3.org/2000/svg" width="668" height="830" viewBox="0 0 668 830">
<rect width="100%" height="100%" fill="#0f1320"/>
<rect x="46" y="116" width="648" height="328" rx="6" fill="#05070c" stroke="#2a3550" stroke-width="1.5"/>
<rect x="46" y="616" width="648" height="168" rx="6" fill="#05070c" stroke="#2a3550" stroke-width="1.5"/>
<text x="50" y="108" font-family="Segoe UI,sans-serif" font-size="15" fill="#8fa3c8">HW-239  128x64  bus 0  -  SPEED</text>
<text x="50" y="608" font-family="Segoe UI,sans-serif" font-size="15" fill="#8fa3c8">0.91"  128x32  bus 1  -  GEAR + RPM</text>
<text x="50" y="155" font-family="DejaVu Sans Mono,Consolas,monospace" font-size="37" letter-spacing="7.75" fill="#d8f4ff" opacity="1" font-weight="600">SPEED</text>
<text x="440" y="155" font-family="DejaVu Sans Mono,Consolas,monospace" font-size="37" letter-spacing="7.75" fill="#d8f4ff" opacity="1" font-weight="600">GEAR 5</text>
<rect x="50" y="165" width="640" height="5" fill="#d8f4ff" opacity="0.55"/>
<rect x="75" y="185" width="100" height="25" fill="#d8f4ff" opacity="1"/>
<rect x="175" y="210" width="25" height="55" fill="#d8f4ff" opacity="1"/>
<rect x="75" y="345" width="100" height="25" fill="#d8f4ff" opacity="1"/>
<rect x="50" y="290" width="25" height="55" fill="#d8f4ff" opacity="1"/>
<rect x="75" y="265" width="100" height="25" fill="#d8f4ff" opacity="1"/>
<rect x="340" y="210" width="25" height="55" fill="#d8f4ff" opacity="1"/>
<rect x="340" y="290" width="25" height="55" fill="#d8f4ff" opacity="1"/>
<rect x="505" y="210" width="25" height="55" fill="#d8f4ff" opacity="1"/>
<rect x="505" y="290" width="25" height="55" fill="#d8f4ff" opacity="1"/>
<rect x="380" y="210" width="25" height="55" fill="#d8f4ff" opacity="1"/>
<rect x="405" y="265" width="100" height="25" fill="#d8f4ff" opacity="1"/>
<text x="550" y="365" font-family="DejaVu Sans Mono,Consolas,monospace" font-size="37" letter-spacing="7.75" fill="#d8f4ff" opacity="1" font-weight="600">KM/H</text>
<rect x="50" y="375" width="640" height="5" fill="#d8f4ff" opacity="1"/>
<rect x="50" y="410" width="640" height="5" fill="#d8f4ff" opacity="1"/>
<rect x="50" y="375" width="5" height="40" fill="#d8f4ff" opacity="1"/>
<rect x="685" y="375" width="5" height="40" fill="#d8f4ff" opacity="1"/>
<rect x="60" y="385" width="15" height="20" fill="#d8f4ff" opacity="1"/>
<rect x="80" y="385" width="15" height="20" fill="#d8f4ff" opacity="1"/>
<rect x="100" y="385" width="15" height="20" fill="#d8f4ff" opacity="1"/>
<rect x="120" y="385" width="15" height="20" fill="#d8f4ff" opacity="1"/>
<rect x="140" y="385" width="15" height="20" fill="#d8f4ff" opacity="1"/>
<rect x="160" y="385" width="15" height="20" fill="#d8f4ff" opacity="1"/>
<rect x="180" y="385" width="15" height="20" fill="#d8f4ff" opacity="1"/>
<rect x="200" y="385" width="15" height="20" fill="#d8f4ff" opacity="1"/>
<rect x="220" y="385" width="15" height="20" fill="#d8f4ff" opacity="1"/>
<rect x="240" y="385" width="15" height="20" fill="#d8f4ff" opacity="1"/>
<rect x="260" y="385" width="15" height="20" fill="#d8f4ff" opacity="1"/>
<rect x="280" y="385" width="15" height="20" fill="#d8f4ff" opacity="1"/>
<rect x="300" y="385" width="15" height="20" fill="#d8f4ff" opacity="1"/>
<rect x="320" y="385" width="15" height="20" fill="#d8f4ff" opacity="1"/>
<rect x="340" y="385" width="15" height="20" fill="#d8f4ff" opacity="1"/>
<rect x="360" y="385" width="15" height="20" fill="#d8f4ff" opacity="1"/>
<rect x="380" y="385" width="15" height="20" fill="#d8f4ff" opacity="1"/>
<rect x="400" y="385" width="15" height="20" fill="#d8f4ff" opacity="1"/>
<rect x="420" y="385" width="15" height="20" fill="#d8f4ff" opacity="1"/>
<rect x="440" y="385" width="15" height="20" fill="#d8f4ff" opacity="1"/>
<rect x="460" y="385" width="15" height="20" fill="#d8f4ff" opacity="1"/>
<rect x="480" y="385" width="15" height="20" fill="#d8f4ff" opacity="1"/>
<rect x="500" y="385" width="15" height="20" fill="#d8f4ff" opacity="1"/>
<rect x="520" y="385" width="15" height="20" fill="#d8f4ff" opacity="1"/>
<rect x="540" y="385" width="15" height="20" fill="#d8f4ff" opacity="1"/>
<rect x="560" y="385" width="15" height="20" fill="#d8f4ff" opacity="1"/>
<rect x="580" y="385" width="15" height="20" fill="#d8f4ff" opacity="1"/>
<rect x="605" y="385" width="5" height="20" fill="#d8f4ff" opacity="1"/>
<rect x="625" y="385" width="5" height="20" fill="#d8f4ff" opacity="1"/>
<rect x="645" y="385" width="5" height="20" fill="#d8f4ff" opacity="1"/>
<rect x="665" y="385" width="5" height="20" fill="#d8f4ff" opacity="1"/>
<rect x="50" y="420" width="310" height="5" fill="#d8f4ff" opacity="1"/>
<rect x="50" y="435" width="310" height="5" fill="#d8f4ff" opacity="1"/>
<rect x="50" y="420" width="5" height="20" fill="#d8f4ff" opacity="1"/>
<rect x="355" y="420" width="5" height="20" fill="#d8f4ff" opacity="1"/>
<rect x="55" y="425" width="300" height="10" fill="#d8f4ff" opacity="1"/>
<rect x="380" y="420" width="310" height="5" fill="#d8f4ff" opacity="1"/>
<rect x="380" y="435" width="310" height="5" fill="#d8f4ff" opacity="1"/>
<rect x="380" y="420" width="5" height="20" fill="#d8f4ff" opacity="1"/>
<rect x="685" y="420" width="5" height="20" fill="#d8f4ff" opacity="1"/>
<rect x="50" y="620" width="640" height="5" fill="#d8f4ff" opacity="1"/>
<rect x="50" y="655" width="640" height="5" fill="#d8f4ff" opacity="1"/>
<rect x="50" y="620" width="5" height="40" fill="#d8f4ff" opacity="1"/>
<rect x="685" y="620" width="5" height="40" fill="#d8f4ff" opacity="1"/>
<rect x="60" y="630" width="15" height="20" fill="#d8f4ff" opacity="1"/>
<rect x="80" y="630" width="15" height="20" fill="#d8f4ff" opacity="1"/>
<rect x="100" y="630" width="15" height="20" fill="#d8f4ff" opacity="1"/>
<rect x="120" y="630" width="15" height="20" fill="#d8f4ff" opacity="1"/>
<rect x="140" y="630" width="15" height="20" fill="#d8f4ff" opacity="1"/>
<rect x="160" y="630" width="15" height="20" fill="#d8f4ff" opacity="1"/>
<rect x="180" y="630" width="15" height="20" fill="#d8f4ff" opacity="1"/>
<rect x="200" y="630" width="15" height="20" fill="#d8f4ff" opacity="1"/>
<rect x="220" y="630" width="15" height="20" fill="#d8f4ff" opacity="1"/>
<rect x="240" y="630" width="15" height="20" fill="#d8f4ff" opacity="1"/>
<rect x="260" y="630" width="15" height="20" fill="#d8f4ff" opacity="1"/>
<rect x="280" y="630" width="15" height="20" fill="#d8f4ff" opacity="1"/>
<rect x="300" y="630" width="15" height="20" fill="#d8f4ff" opacity="1"/>
<rect x="320" y="630" width="15" height="20" fill="#d8f4ff" opacity="1"/>
<rect x="340" y="630" width="15" height="20" fill="#d8f4ff" opacity="1"/>
<rect x="360" y="630" width="15" height="20" fill="#d8f4ff" opacity="1"/>
<rect x="380" y="630" width="15" height="20" fill="#d8f4ff" opacity="1"/>
<rect x="400" y="630" width="15" height="20" fill="#d8f4ff" opacity="1"/>
<rect x="420" y="630" width="15" height="20" fill="#d8f4ff" opacity="1"/>
<rect x="440" y="630" width="15" height="20" fill="#d8f4ff" opacity="1"/>
<rect x="460" y="630" width="15" height="20" fill="#d8f4ff" opacity="1"/>
<rect x="480" y="630" width="15" height="20" fill="#d8f4ff" opacity="1"/>
<rect x="500" y="630" width="15" height="20" fill="#d8f4ff" opacity="1"/>
<rect x="520" y="630" width="15" height="20" fill="#d8f4ff" opacity="1"/>
<rect x="540" y="630" width="15" height="20" fill="#d8f4ff" opacity="1"/>
<rect x="560" y="630" width="15" height="20" fill="#d8f4ff" opacity="1"/>
<rect x="580" y="630" width="15" height="20" fill="#d8f4ff" opacity="1"/>
<rect x="605" y="630" width="5" height="20" fill="#d8f4ff" opacity="1"/>
<rect x="625" y="630" width="5" height="20" fill="#d8f4ff" opacity="1"/>
<rect x="645" y="630" width="5" height="20" fill="#d8f4ff" opacity="1"/>
<rect x="665" y="630" width="5" height="20" fill="#d8f4ff" opacity="1"/>
<rect x="80" y="665" width="70" height="20" fill="#d8f4ff" opacity="1"/>
<rect x="150" y="730" width="20" height="25" fill="#d8f4ff" opacity="1"/>
<rect x="80" y="755" width="70" height="20" fill="#d8f4ff" opacity="1"/>
<rect x="60" y="685" width="20" height="25" fill="#d8f4ff" opacity="1"/>
<rect x="80" y="710" width="70" height="20" fill="#d8f4ff" opacity="1"/>
<rect x="195" y="665" width="5" height="110" fill="#d8f4ff" opacity="0.55"/>
<text x="220" y="705" font-family="DejaVu Sans Mono,Consolas,monospace" font-size="37" letter-spacing="7.75" fill="#d8f4ff" opacity="1" font-weight="600">RPM</text>
<text x="440" y="770" font-family="DejaVu Sans Mono,Consolas,monospace" font-size="74" letter-spacing="15.5" fill="#d8f4ff" opacity="1" font-weight="600">6820</text>
</svg>
